<?xml version="1.0" encoding="UTF-8" standalone="no"?>
<svg
   xmlns:dc="http://purl.org/dc/elements/1.1/"
   xmlns:cc="http://creativecommons.org/ns#"
   xmlns:rdf="http://www.w3.org/1999/02/22-rdf-syntax-ns#"
   xmlns:svg="http://www.w3.org/2000/svg"
   xmlns="http://www.w3.org/2000/svg"
   xmlns:sodipodi="http://sodipodi.sourceforge.net/DTD/sodipodi-0.dtd"
   xmlns:inkscape="http://www.inkscape.org/namespaces/inkscape"
   width="24px"
   height="24px"
   stroke-width="1.5"
   viewBox="0 0 24 24"
   fill="none"
   color="#000000"
   version="1.1"
   id="svg8"
   sodipodi:docname="folder-plus-dark-mode.svg"
   inkscape:version="0.92.4 (5da689c313, 2019-01-14)">
  <metadata
     id="metadata14">
    <rdf:RDF>
      <cc:Work
         rdf:about="">
        <dc:format>image/svg+xml</dc:format>
        <dc:type
           rdf:resource="http://purl.org/dc/dcmitype/StillImage" />
        <dc:title />
      </cc:Work>
    </rdf:RDF>
  </metadata>
  <defs
     id="defs12" />
  <sodipodi:namedview
     pagecolor="#ffffff"
     bordercolor="#666666"
     borderopacity="1"
     objecttolerance="10"
     gridtolerance="10"
     guidetolerance="10"
     inkscape:pageopacity="0"
     inkscape:pageshadow="2"
     inkscape:window-width="3840"
     inkscape:window-height="2035"
     id="namedview10"
     showgrid="false"
     inkscape:zoom="45.254834"
     inkscape:cx="6.8991953"
     inkscape:cy="10.235924"
     inkscape:window-x="-13"
     inkscape:window-y="1715"
     inkscape:window-maximized="1"
     inkscape:current-layer="svg8" />
  <path
     d="M18 6H20M22 6H20M20 6V4M20 6V8"
     stroke="#000000"
     stroke-width="1.5"
     stroke-linecap="round"
     stroke-linejoin="round"
     id="path2"
     style="stroke:#ffffff;stroke-opacity:1" />
  <path
     d="M21.4 20H2.6C2.26863 20 2 19.7314 2 19.4V11H21.4C21.7314 11 22 11.2686 22 11.6V19.4C22 19.7314 21.7314 20 21.4 20Z"
     stroke="#000000"
     stroke-width="1.5"
     stroke-linecap="round"
     stroke-linejoin="round"
     id="path4"
     style="stroke:#ffffff;stroke-opacity:1" />
  <path
     d="M2 11V4.6C2 4.26863 2.26863 4 2.6 4H8.77805C8.92127 4 9.05977 4.05124 9.16852 4.14445L12.3315 6.85555C12.4402 6.94876 12.5787 7 12.722 7H14"
     id="path6"
     style="stroke:#ffffff;stroke-opacity:1"
     stroke-linejoin="round"
     stroke-linecap="round"
     stroke-width="1.5"
     stroke="#000000" />
</svg>
